<?xml version="1.0" encoding="UTF-8"?>
<svg width="120px" height="31px" viewBox="0 0 120 31" version="1.1" xmlns="http://www.w3.org/2000/svg" xmlns:xlink="http://www.w3.org/1999/xlink">
    <title>Header__logo</title>
    <g id="Page-1" stroke="none" stroke-width="1" fill="none" fill-rule="evenodd">
        <g id="Lit-up---Home-2.0" transform="translate(-120.000000, -95.000000)" fill-rule="nonzero">
            <g id="Header" transform="translate(50.000000, 90.000000)">
                <g id="Header__top" transform="translate(70.000000, 0.000000)">
                    <g id="Header__logo" transform="translate(0.000000, 5.000000)">
                        <g id="Group-11-Copy-3" transform="translate(0.000000, 0.523123)">
                            <g id="Group-9" transform="translate(11.123023, 0.001330)">
                                <path d="M2.36206837,0 C1.72269157,0 1.64221676,0 1.39460195,0.015297421 C1.19739445,0.0184858977 1.0037243,0.0565223356 0.819781872,0.127728015 C0.662369603,0.188077431 0.51999109,0.283112205 0.402374058,0.406127452 C0.282988348,0.527196002 0.190132797,0.673611579 0.130882111,0.835197402 C0.0619037012,1.02296325 0.0247614805,1.22133011 0.0212241261,1.42182261 C0.00972772447,1.68034358 0.00707470871,1.76218115 0.00707470871,2.41993392 C0.00707470871,3.07769577 0.00707470871,3.1587612 0.0212241261,3.41422086 C0.0247614805,3.61472245 0.0619037012,3.81308022 0.130882111,4.00084607 C0.190132797,4.1624864 0.282988348,4.30941068 0.401489719,4.43208074 C0.51999109,4.55475079 0.662369603,4.65043234 0.819781872,4.71291195 C1.00283996,4.78371249 1.19562577,4.82199238 1.3910646,4.82610742 C1.64221676,4.8375714 1.72269157,4.8406327 2.35941535,4.8406327 C2.99613914,4.8406327 3.07926697,4.8406327 3.32688177,4.82610742 C3.5223206,4.82191062 3.71599075,4.78363982 3.89904884,4.71291195 C4.05557677,4.65093196 4.19795528,4.55595896 4.31645665,4.43411555 C4.43495802,4.31226305 4.52781357,4.166229 4.5879486,4.00543348 C4.65604267,3.81756771 4.69318489,3.61926444 4.69760658,3.41880827 C4.70821865,3.16029639 4.711756,3.07845882 4.711756,2.42452132 C4.711756,1.77059291 4.711756,1.68493099 4.69760658,1.42641911 C4.69318489,1.22595385 4.65604267,1.02765967 4.5879486,0.839784811 C4.52869791,0.678198989 4.43584236,0.531783412 4.31557231,0.410716678 C4.19795528,0.287874027 4.05646111,0.192866505 3.89904884,0.132316333 C3.71599075,0.0615875624 3.5223206,0.0235611169 3.32688177,0.0198857389 C3.08191998,0.00305948421 3.00144517,0 2.36206837,0 Z" id="Path" fill="#29CD1F"></path>
                                <path d="M0,8.56154869 L0,23.4322407 C0,23.5336179 0.0397952365,23.6309073 0.109657985,23.7026708 C0.179520733,23.7743434 0.274144962,23.8146762 0.372306546,23.8146762 L4.33856512,23.8146762 C4.4367267,23.8146762 4.53135093,23.7743434 4.60121368,23.7026708 C4.67107642,23.6309073 4.71087166,23.5336179 4.71087166,23.4322407 L4.71087166,6.76648172 C4.71087166,6.70300287 4.69495357,6.64052326 4.66577039,6.58469313 C4.63658722,6.52886299 4.59413897,6.48142645 4.54196299,6.44667115 C4.49067135,6.41191584 4.43142067,6.39093185 4.36951697,6.38560864 C4.30761326,6.38028543 4.24570956,6.39079559 4.18911189,6.41618531 L0.223737663,8.21125228 C0.157412269,8.24100231 0.100814599,8.28998313 0.0610193626,8.35220839 C0.0212241261,8.41442456 0,8.48716907 0,8.56154869 L0,8.56154869 Z" id="Path" fill="#FFFFFF"></path>
                            </g>
                            <path d="M0,2.17728654 C8.84338588e-05,2.10290692 0.0212241261,2.03016241 0.0608424949,1.96794624 C0.100549298,1.90572098 0.157058533,1.85674016 0.223383927,1.82699013 L0.223383927,1.82699013 L4.18920015,0.0319258894 C4.24579782,0.00653344224 4.30770152,-0.00397581334 4.36872088,0.00134649009 C4.43062459,0.00666788513 4.48987527,0.027653694 4.54205125,0.0624099069 C4.59334289,0.0971661199 4.63579114,0.144599934 4.66497431,0.200431887 C4.69504182,0.256264749 4.71007558,0.318738908 4.71007558,0.382219571 L4.71007558,0.382219571 L4.71,10.894 L4.711756,10.9068749 L4.711756,17.9825474 C4.711756,18.6005305 4.83998509,19.0467356 5.09555895,19.3210718 C5.3511328,19.5954079 5.78003701,19.7324852 6.38138725,19.7324852 L6.38138725,19.7324852 L8.44985521,19.7324852 C8.54890113,19.7324852 8.64352536,19.7728181 8.71338811,19.8444907 C8.78325086,19.9162541 8.82216176,20.0135435 8.82216176,20.1149207 L8.82216176,20.1149207 L8.82216176,23.4335708 C8.82216176,23.5349481 8.78325086,23.6322375 8.71338811,23.7040009 C8.64352536,23.7756735 8.54890113,23.8160321 8.44985521,23.8160321 L8.44985521,23.8160321 L4.91426954,23.8160321 C1.63779507,23.8185499 0,22.1371962 0,18.7718544 L0,18.7718544 Z" id="Path-4" fill="#FFFFFF"></path>
                            <path d="M24.6486641,19.7324852 C24.0473138,19.7324852 23.6184096,19.5954079 23.3628358,19.3210718 C23.1072619,19.0467356 22.9790328,18.6005305 22.9790328,17.9825474 L22.9790328,10.2616193 L26.5146185,10.2616193 C26.6136644,10.2616193 26.7082887,10.2212864 26.7781514,10.1496138 C26.8480141,10.0778504 26.886925,9.98056096 26.886925,9.87918375 L26.886925,6.56055179 C26.886925,6.45912916 26.8480141,6.36185791 26.7781514,6.29013989 C26.7082887,6.21843096 26.6136644,6.17813443 26.5146185,6.17813443 L22.9790328,6.17813443 L22.9790328,1.82317486 C22.9790328,1.7597596 22.9631147,1.69737083 22.9339316,1.64164062 C22.903864,1.58591041 22.8614158,1.53858288 22.8101242,1.50391841 C22.7588325,1.46924486 22.6995818,1.44833354 22.6376781,1.44304667 C22.5757744,1.43775979 22.5138707,1.44827904 22.4572731,1.47364151 L18.4910145,3.26870848 C18.4246891,3.29840401 18.3680914,3.34726673 18.3282962,3.40933756 C18.288501,3.47140839 18.2672768,3.54398938 18.2672768,3.61823275 L18.2672768,18.7718544 C18.2672768,22.1371962 19.9050719,23.8185499 23.1815464,23.8160122 L26.717132,23.8160122 C26.816178,23.8160122 26.9108022,23.7756735 26.9806649,23.7040009 C27.0505277,23.6322375 27.0894386,23.5349481 27.0894386,23.4335708 L27.0894386,20.1149207 C27.0894386,20.0135435 27.0505277,19.9162541 26.9806649,19.8444907 C26.9108022,19.7728181 26.816178,19.7324852 26.717132,19.7324852 L24.6486641,19.7324852 Z" id="Path" fill="#FFFFFF"></path>
                            <g id="Group-7" transform="translate(33.833828, 5.972533)" fill="#FFFFFF">
                                <path d="M16.0962004,0.208029345 L12.1306493,0.208029345 C12.0318687,0.208029345 11.937156,0.248325877 11.8673817,0.320043893 C11.7975189,0.391761909 11.7583427,0.489024075 11.7583427,0.590446703 L11.7583427,8.88966097 C11.7583427,10.514149 11.4356476,11.7781847 10.7903457,12.6816773 C10.1450439,13.5852607 9.23169896,14.0382787 8.05031104,14.0408222 C6.91508559,14.0408222 6.07443333,13.6346775 5.52844269,12.8224789 C4.98245204,12.0101895 4.70936829,10.8035646 4.70936829,9.20251322 L4.70936829,0.590446703 C4.70936829,0.489024075 4.67019209,0.391761909 4.60032934,0.320043893 C4.53055502,0.248325877 4.43584236,0.208029345 4.33715017,0.208029345 L0.372218112,0.208029345 C0.273525925,0.208029345 0.178813263,0.248325877 0.109038948,0.320043893 C0.0391761995,0.391761909 0,0.489024075 0,0.590446703 L0,9.78225277 C0,12.7558934 0.634601371,14.8775476 1.90380411,16.1472153 C3.17309529,17.4167923 4.80991758,18.0515807 6.81435943,18.0515807 C7.97240081,18.0515807 8.95224796,17.8458286 9.7539009,17.4344152 C10.5169082,17.0399888 11.1977605,16.4964943 11.7583427,15.8343631 L11.7583427,17.4634839 C11.7583427,17.5648611 11.7975189,17.6621506 11.8673817,17.7338232 C11.937156,17.8055866 12.0318687,17.8458286 12.1306493,17.8458286 L16.0962004,17.8458286 C16.194981,17.8458286 16.2896937,17.8055866 16.359468,17.7338232 C16.4293307,17.6621506 16.4685069,17.5648611 16.4685069,17.4634839 L16.4685069,0.590446703 C16.4685069,0.489024075 16.4293307,0.391761909 16.359468,0.320043893 C16.2896937,0.248325877 16.194981,0.208029345 16.0962004,0.208029345 L16.0962004,0.208029345 Z" id="Path"></path>
                                <path d="M35.6103794,4.29153236 C34.9308536,2.91839806 33.9954003,1.85957853 32.8041077,1.11513734 C31.6128152,0.370696161 30.2477502,-0.00101118516 28.7089126,2.06591302e-06 C27.5280553,2.06591302e-06 26.486835,0.240168464 25.5854287,0.720483866 C24.7784698,1.14277081 24.0679037,1.73608183 23.5006005,2.46124681 L23.5006005,0.585105323 C23.5006005,0.483682695 23.4614243,0.386411445 23.3915615,0.314693429 C23.3217872,0.242984497 23.2270746,0.202687965 23.128294,0.202687965 L19.1627429,0.202687965 C19.0639622,0.202687965 18.9692496,0.242984497 18.8994753,0.314693429 C18.8296125,0.386411445 18.7904363,0.483682695 18.7904363,0.585105323 L18.7904363,24.1221316 C18.7904363,24.1856286 18.8059122,24.2480355 18.8352723,24.303902 C18.8647207,24.3597684 18.907169,24.4071868 18.9589028,24.4418876 C19.0106366,24.4766793 19.0698873,24.4976633 19.1315257,24.5030228 C19.1930757,24.5082915 19.2549794,24.4977541 19.3116655,24.4724098 L23.2772166,22.6773247 C23.3436304,22.64762 23.4000512,22.5985666 23.439758,22.5364321 C23.4794648,22.4742069 23.5006005,22.4014442 23.5006005,22.3270464 L23.5006005,15.6156209 C24.7480485,17.2401089 26.4739237,18.0521258 28.6784029,18.0515807 C30.2172405,18.0515807 31.5869925,17.6799552 32.7877475,16.9365223 C33.9885024,16.1930894 34.9293502,15.1465242 35.6103794,13.7968266 C36.2909664,12.4466747 36.6312599,10.8680608 36.6312599,9.06098482 C36.6312599,7.25390883 36.2909664,5.66412162 35.6103794,4.29153236 Z M30.6828448,12.6816773 C29.9029466,13.6305897 28.8784403,14.1053185 27.6092376,14.1058642 C26.3399464,14.1063177 25.3265828,13.637221 24.5690584,12.6985735 C23.8125952,11.7608343 23.4340982,10.5256856 23.4335676,8.99294582 C23.4335676,7.48318847 23.8123298,6.26475433 24.5698543,5.33782509 C25.3272903,4.41080501 26.340477,3.94652283 27.6092376,3.94497855 C28.8784403,3.94497855 29.9029466,4.4082615 30.6828448,5.33473654 C31.4626545,6.26121158 31.8522941,7.48055411 31.8517646,8.99294582 C31.8517646,10.5027032 31.4621239,11.7323106 30.6828448,12.6816773 L30.6828448,12.6816773 Z" id="Shape"></path>
                            </g>
                        </g>
                        <path d="M80.6025792,10.6734587 L83.3193722,2.98736748 L81.6873419,2.98736748 L79.8207682,8.86202314 L79.7425871,8.86202314 L77.8808998,2.98736748 L76.2488694,2.98736748 L78.9607761,10.6734587 L80.6025792,10.6734587 Z M85.2810691,1.82144349 C85.5384152,1.82144349 85.7599283,1.7322061 85.9456084,1.55373133 C86.1312885,1.37525656 86.2241285,1.16092003 86.2241285,0.910721746 C86.2241285,0.660523464 86.1312885,0.446186936 85.9456084,0.267712161 C85.7599283,0.0892373872 85.5384152,0 85.2810691,0 C85.0237229,0 84.8022098,0.0892373872 84.6165297,0.267712161 C84.4308496,0.446186936 84.3380096,0.660523464 84.3380096,0.910721746 C84.3380096,1.16092003 84.4300352,1.37525656 84.6140866,1.55373133 C84.7981379,1.7322061 85.0204654,1.82144349 85.2810691,1.82144349 Z M86.0384484,10.6734587 L86.0384484,2.98736748 L84.513917,2.98736748 L84.513917,10.6734587 L86.0384484,10.6734587 Z M90.5640929,10.8285816 C91.173254,10.8285816 91.7099346,10.7260003 92.1741349,10.5208377 C92.6383351,10.3156752 93.0015515,10.0329511 93.2637839,9.67266557 C93.5260163,9.31238005 93.6571325,8.90038688 93.6571325,8.43668606 C93.6571325,7.89292179 93.4869258,7.45007084 93.1465123,7.10813318 C92.8060987,6.76619553 92.2889634,6.51516326 91.5951061,6.35503636 L91.5951061,6.35503636 L90.3832991,6.07481428 C89.9761059,5.97473497 89.6821124,5.84880183 89.5013187,5.69701488 C89.3205249,5.54522792 89.230128,5.3442353 89.230128,5.09403702 C89.230128,4.80380701 89.3653161,4.56611864 89.6356924,4.38097191 C89.9060687,4.19582518 90.2432247,4.10325182 90.6471603,4.10325182 C90.9468545,4.10325182 91.1960568,4.15245748 91.3947671,4.25086881 C91.5934774,4.34928013 91.7514683,4.47604726 91.86874,4.63117019 C91.9860116,4.78629313 92.0723366,4.95059 92.1277148,5.12406081 L92.1277148,5.12406081 L93.510543,4.89387839 C93.3639534,4.28339458 93.0544866,3.79634193 92.5821425,3.43272043 C92.1097983,3.06909892 91.459918,2.88728817 90.6325014,2.88728817 C90.0624309,2.88728817 89.5566969,2.98319751 89.1152995,3.1750162 C88.6739021,3.36683488 88.3294166,3.63371305 88.0818431,3.9756507 C87.8342697,4.31758835 87.7104829,4.7170716 87.7104829,5.17410047 C87.7104829,5.72453669 87.8782465,6.17906356 88.2137737,6.5376811 C88.5493009,6.89629864 89.0688795,7.15567086 89.7725093,7.31579776 L89.7725093,7.31579776 L91.0429521,7.6010238 C91.4012822,7.68442323 91.6659577,7.8053524 91.8369789,7.96381131 C92.008,8.12227022 92.0951394,8.31992686 92.0983969,8.55678124 C92.0951394,8.84701124 91.9534362,9.09220556 91.6732872,9.29236418 C91.3931383,9.49252281 91.0201493,9.59260212 90.5543203,9.59260212 C90.1210667,9.59260212 89.7692518,9.49752677 89.4988755,9.30737608 C89.2284992,9.11722539 89.050963,8.83700331 88.9662668,8.46670985 L88.9662668,8.46670985 L87.4905986,8.67687641 C87.6078702,9.36408769 87.9352536,9.89450805 88.4727486,10.2681375 C89.0102436,10.6417669 89.7073584,10.8285816 90.5640929,10.8285816 Z M97.5514637,10.773538 C98.1182767,10.773538 98.5914352,10.6375969 98.9709393,10.3657148 C99.3504433,10.0938327 99.6265203,9.74939304 99.7991703,9.33239591 L99.7991703,9.33239591 L99.8773513,9.33239591 L99.8773513,10.6734587 L101.367678,10.6734587 L101.367678,2.98736748 L99.8431471,2.98736748 L99.8431471,7.47592466 C99.8464047,7.90292973 99.7600797,8.2565433 99.5841722,8.53676537 C99.4082648,8.81698745 99.1867517,9.02548602 98.9196329,9.16226108 C98.6525142,9.29903614 98.3837667,9.36742367 98.1133904,9.36742367 C97.6671066,9.36742367 97.3047047,9.21480272 97.0261845,8.90956081 C96.7476644,8.60431891 96.6084043,8.19315973 96.6084043,7.67608328 L96.6084043,7.67608328 L96.6084043,2.98736748 L95.0838729,2.98736748 L95.0838729,7.87624191 C95.0838729,8.50674158 95.1889288,9.03716194 95.3990404,9.46750298 C95.6091521,9.89784403 95.8998881,10.2231018 96.2712483,10.4432763 C96.6426085,10.6634508 97.069347,10.773538 97.5514637,10.773538 Z M105.334913,10.8385896 C105.745364,10.8385896 106.097993,10.778542 106.392801,10.6584468 C106.687609,10.5383516 106.930296,10.3848967 107.120863,10.198082 C107.311429,10.0112672 107.453947,9.81944856 107.548415,9.62262592 L107.548415,9.62262592 L107.607051,9.62262592 L107.607051,10.6734587 L109.087606,10.6734587 L109.087606,5.55940582 C109.087606,5.01230558 108.994766,4.56361666 108.809086,4.21333906 C108.623406,3.86306147 108.382347,3.59201333 108.08591,3.40019465 C107.789474,3.20837597 107.471049,3.07493688 107.130635,2.9998774 C106.790222,2.92481791 106.463653,2.88728817 106.150928,2.88728817 C105.685099,2.88728817 105.244516,2.9556757 104.829179,3.09245076 C104.413842,3.22922582 104.050626,3.44439635 103.73953,3.73796233 C103.428435,4.03152831 103.194706,4.4118297 103.038343,4.87886649 L103.038343,4.87886649 L104.465148,5.1841084 C104.56939,4.91389425 104.759142,4.67120192 105.034405,4.4560314 C105.309667,4.24086088 105.688357,4.13327561 106.170474,4.13327561 C106.629788,4.13327561 106.976716,4.25003481 107.211259,4.48355321 C107.445803,4.7170716 107.563074,5.04566535 107.563074,5.46933444 L107.563074,5.46933444 L107.563074,5.5043622 C107.563074,5.68450496 107.499552,5.81460807 107.372508,5.89467152 C107.245464,5.97473497 107.042681,6.03228057 106.764161,6.06730833 C106.485641,6.10233609 106.123239,6.14653779 105.676955,6.19991342 C105.318625,6.24328112 104.969254,6.30666469 104.62884,6.39006412 C104.288427,6.47346354 103.979774,6.59772869 103.702883,6.76285956 C103.425991,6.92799042 103.206921,7.15066689 103.045673,7.43088897 C102.884424,7.71111104 102.8038,8.06972858 102.8038,8.50674158 C102.8038,9.01047412 102.915371,9.4349772 103.138513,9.78025083 C103.361655,10.1255245 103.664607,10.3882327 104.047368,10.5683754 C104.43013,10.7485182 104.859312,10.8385896 105.334913,10.8385896 Z M105.681842,9.61261798 C105.277906,9.61261798 104.944822,9.52004462 104.68259,9.33489789 C104.420357,9.14975116 104.289241,8.87536705 104.289241,8.51174554 C104.289241,8.25153933 104.356835,8.04220677 104.492023,7.88374786 C104.627211,7.72528895 104.80882,7.60352578 105.036848,7.51845837 C105.264876,7.43339095 105.518965,7.37084138 105.799113,7.33080965 C105.916385,7.31412977 106.062975,7.29411391 106.238882,7.27076207 C106.41479,7.24741023 106.594769,7.21988842 106.77882,7.18819663 C106.962872,7.15650485 107.127378,7.11897511 107.272338,7.07560741 C107.417299,7.03223971 107.51584,6.98386804 107.567961,6.9304924 L107.567961,6.9304924 L107.567961,7.9062657 C107.567961,8.20650364 107.493037,8.48589172 107.34319,8.74442995 C107.193343,9.00296817 106.977531,9.21230073 106.695753,9.37242763 C106.413975,9.53255453 106.076005,9.61261798 105.681842,9.61261798 Z M112.381316,10.6734587 L112.381316,0.425337079 L110.856785,0.425337079 L110.856785,10.6734587 L112.381316,10.6734587 Z M116.90696,10.8285816 C117.516121,10.8285816 118.052802,10.7260003 118.517002,10.5208377 C118.981203,10.3156752 119.344419,10.0329511 119.606651,9.67266557 C119.868884,9.31238005 120,8.90038688 120,8.43668606 C120,7.89292179 119.829793,7.45007084 119.48938,7.10813318 C119.148966,6.76619553 118.631831,6.51516326 117.937974,6.35503636 L117.937974,6.35503636 L116.726167,6.07481428 C116.318973,5.97473497 116.02498,5.84880183 115.844186,5.69701488 C115.663392,5.54522792 115.572995,5.3442353 115.572995,5.09403702 C115.572995,4.80380701 115.708184,4.56611864 115.97856,4.38097191 C116.248936,4.19582518 116.586092,4.10325182 116.990028,4.10325182 C117.289722,4.10325182 117.538924,4.15245748 117.737635,4.25086881 C117.936345,4.34928013 118.094336,4.47604726 118.211607,4.63117019 C118.328879,4.78629313 118.415204,4.95059 118.470582,5.12406081 L118.470582,5.12406081 L119.85341,4.89387839 C119.706821,4.28339458 119.397354,3.79634193 118.92501,3.43272043 C118.452666,3.06909892 117.802785,2.88728817 116.975369,2.88728817 C116.405298,2.88728817 115.899564,2.98319751 115.458167,3.1750162 C115.01677,3.36683488 114.672284,3.63371305 114.424711,3.9756507 C114.177137,4.31758835 114.05335,4.7170716 114.05335,5.17410047 C114.05335,5.72453669 114.221114,6.17906356 114.556641,6.5376811 C114.892168,6.89629864 115.411747,7.15567086 116.115377,7.31579776 L116.115377,7.31579776 L117.38582,7.6010238 C117.74415,7.68442323 118.008825,7.8053524 118.179846,7.96381131 C118.350868,8.12227022 118.438007,8.31992686 118.441264,8.55678124 C118.438007,8.84701124 118.296304,9.09220556 118.016155,9.29236418 C117.736006,9.49252281 117.363017,9.59260212 116.897188,9.59260212 C116.463934,9.59260212 116.112119,9.49752677 115.841743,9.30737608 C115.571367,9.11722539 115.39383,8.83700331 115.309134,8.46670985 L115.309134,8.46670985 L113.833466,8.67687641 C113.950738,9.36408769 114.278121,9.89450805 114.815616,10.2681375 C115.353111,10.6417669 116.050226,10.8285816 116.90696,10.8285816 Z" id="visuals" fill="#FFFFFF"></path>
                    </g>
                </g>
            </g>
        </g>
    </g>
</svg>