<svg width="120" height="31" viewBox="0 0 120 31" fill="none" xmlns="http://www.w3.org/2000/svg">
<path d="M7.67816 27.7876H3V9.1617H7.67816V27.7876Z" fill="white"/>
<path d="M38.0404 27.7876H33.913L33.8868 15.6809L29.4709 25.9243H26.4213L22.0054 15.6809V27.7876H17.8256V9.13274H22.952L27.9449 20.2306L32.9402 9.13274H38.0404V27.7876Z" fill="white"/>
<path d="M56.9394 9C59.7959 9 62.1707 9.90028 64.0639 11.7008C65.9571 13.5014 66.9037 15.7503 66.9037 18.4469C66.9037 21.1616 65.9523 23.4328 64.0496 25.2605C62.148 27.087 59.778 28 56.9394 28C54.1002 28 51.7343 27.0913 49.8411 25.2726C47.9491 23.4546 47.0036 21.1791 47.0036 18.4469C47.0036 15.7328 47.9491 13.4797 49.8411 11.6888C51.7343 9.89666 54.1002 9 56.9394 9ZM56.9918 12.9656C55.5546 12.9656 54.3273 13.4936 53.3103 14.5489C52.2946 15.6049 51.7867 16.913 51.7867 18.4734C51.7867 20.0345 52.2994 21.3517 53.3246 22.4245C54.3499 23.498 55.5719 24.0344 56.9918 24.0344C58.4111 24.0344 59.6158 23.498 60.6065 22.4245C61.5967 21.3517 62.092 20.0345 62.092 18.4734C62.092 16.913 61.5967 15.6049 60.6065 14.5489C59.6158 13.4936 58.4111 12.9656 56.9918 12.9656Z" fill="white"/>
<path d="M85.9587 27.7876H81.1232L73.9724 9.1617H78.9677L83.6721 22.8638L88.3789 9.1617H93.1882L85.9587 27.7876Z" fill="white"/>
<path d="M113.691 24.3554H105.648L104.306 27.7876H99.4967L107.434 9.1617H112.246L120 27.7876H115.007L113.691 24.3554ZM112.325 20.7616L109.697 13.8707L107.015 20.7616H112.325Z" fill="white"/>
<path d="M11 6H7.6868L5.4988 2.87983L3.3132 6H0L3.62988 1H7.36772L11 6Z" fill="#56AEFF"/>
</svg>
