<svg width="220" height="91" viewBox="0 0 220 91" fill="none" xmlns="http://www.w3.org/2000/svg" >
<g clip-path="url(#clip0_38_124)">
<path d="M0 34.1175H15.2739C17.7687 34.1175 19.626 35.0877 20.8457 37.0282C22.0469 38.9316 22.6475 41.2139 22.6475 43.8751C22.6475 45.5013 22.3703 47.1091 21.8159 48.6984C21.206 50.4171 20.6054 51.7754 20.014 52.7733C19.3488 53.8636 18.7389 55.2127 18.1845 56.8204C17.6486 58.3543 17.3806 59.9436 17.3806 61.5883C17.3806 63.1592 17.9812 64.5082 19.1824 65.6355C20.3836 66.7628 22.0931 67.308 24.3107 67.271C26.0478 67.271 27.5262 66.9661 28.7459 66.3562C29.9841 65.7279 30.8804 64.924 31.4348 63.9446C31.9892 62.9466 32.3773 61.9857 32.599 61.0617C32.8208 60.1376 32.9317 59.1397 32.9317 58.0679C32.9317 56.4231 32.4974 54.5659 31.6288 52.4961C30.7972 50.5187 29.827 48.6799 28.7182 46.9797C27.6094 45.2796 26.6484 43.5702 25.8353 41.8515C24.9667 40.0035 24.5324 38.5066 24.5324 37.3608C24.5324 36.4553 24.8374 35.6884 25.4472 35.06C26.0571 34.4317 26.8055 34.1175 27.6926 34.1175H40.9429C43.9182 34.1175 45.4058 36.8988 45.4058 42.4613C45.4058 45.6215 44.8145 48.6984 43.6317 51.6922C42.4675 54.6305 41.0168 57.2547 39.2796 59.5648C37.8382 61.4867 36.138 63.5842 34.1791 65.8573C32.4235 67.8901 30.9728 69.7658 29.827 71.4845C28.6443 73.2401 28.0529 74.7924 28.0529 76.1415C28.0529 78.0819 28.3394 79.819 28.9123 81.3529C29.4851 82.8868 30.1227 84.0602 30.825 84.8734C31.6011 85.7789 32.2387 86.5735 32.7377 87.2573C33.3105 88.052 33.597 88.7357 33.597 89.3086C33.597 90.362 32.6175 90.8887 30.6586 90.8887H16.8539C15.7266 90.8887 14.8581 90.3343 14.2482 89.2255C13.6384 88.1166 13.3335 86.8508 13.3335 85.4278C13.3335 84.0602 13.777 82.7389 14.664 81.4638C15.5696 80.1517 16.6506 79.0336 17.9073 78.1096C19.3672 77.0193 20.6331 76.1415 21.705 75.4762C22.9432 74.7 24.0242 73.9054 24.9483 73.0923C25.8353 72.3161 26.2788 71.6231 26.2788 71.0132C26.2788 70.4403 26.0386 70.1539 25.5581 70.1539C25.3179 70.1539 24.5786 70.3941 23.3405 70.8746C22.1023 71.3551 20.6978 71.5954 19.127 71.5954C17.0942 71.5954 15.3478 71.2258 13.8879 70.4865C12.4464 69.7473 11.3191 68.7032 10.506 67.3542C9.72982 66.0605 9.13845 64.7115 8.73189 63.307C8.38076 62.1058 8.10356 60.5534 7.90028 58.65L7.87256 58.3728C7.85408 58.188 7.81712 57.8831 7.76168 57.458C7.72472 57.033 7.68776 56.5802 7.6508 56.0997C7.52144 54.5474 7.41979 53.531 7.34587 53.0505C7.32739 52.9211 7.20727 51.9602 6.98551 50.1676C6.80071 48.6522 6.61591 47.5711 6.4311 46.9243C6.32022 46.5362 6.08922 45.5753 5.7381 44.0414C5.44241 42.7663 5.11901 41.7591 4.76789 41.0199C4.45372 40.3731 4.04716 39.5322 3.5482 38.4973C3.06771 37.5364 2.54103 36.7048 1.96814 36.0025C1.37677 35.3003 0.720727 34.6719 0 34.1175ZM55.7976 83.7091C51.7135 78.3499 49.6714 71.2812 49.6714 62.5031C49.6714 53.725 51.7135 46.6563 55.7976 41.2971C59.8817 35.9378 65.2964 33.2582 72.0417 33.2582C78.713 33.2582 84.1 35.9378 88.2026 41.2971C92.3052 46.6379 94.3565 53.7065 94.3565 62.5031C94.3565 71.2997 92.3052 78.3683 88.2026 83.7091C84.1 89.0684 78.713 91.748 72.0417 91.748C65.2964 91.748 59.8817 89.0684 55.7976 83.7091ZM67.4401 37.139C64.6496 37.139 63.0603 40.3361 62.6722 46.7303C62.2287 53.4571 63.0418 61.0617 65.1116 69.5441C67.1814 77.9895 69.6393 83.6075 72.4852 86.398C73.5201 87.3774 74.5273 87.8672 75.5067 87.8672C79.4615 87.8672 81.5497 83.6444 81.7715 75.199C81.9933 66.7351 80.6072 58.2711 77.6135 49.8072C74.6197 41.3618 71.2286 37.139 67.4401 37.139ZM102.115 40.8258C102.115 39.1257 101.949 37.7581 101.616 36.7232C101.283 35.7253 100.655 34.8567 99.7309 34.1175H116.668C117.777 34.1175 118.655 34.635 119.301 35.6699C119.967 36.7232 120.299 37.8505 120.299 39.0517C120.299 41.3618 119.773 43.6533 118.719 45.9264C117.703 48.107 116.419 50.1491 114.866 52.0526C113.332 53.9375 111.826 55.7486 110.348 57.4857C108.851 59.2414 107.567 61.1725 106.495 63.2793C105.441 65.3306 104.915 67.3819 104.915 69.4332C104.915 71.6878 105.626 73.6005 107.049 75.1713C108.435 76.6866 110.089 77.7585 112.011 78.3868C113.896 78.9967 115.901 79.3016 118.026 79.3016C121.002 79.3016 123.45 78.3683 125.372 76.5018C127.331 74.5984 128.311 71.9927 128.311 68.6847V40.8258C128.311 39.1811 128.135 37.8136 127.784 36.7232C127.451 35.7068 126.832 34.8383 125.927 34.1175H145.442C144.536 34.8383 143.917 35.7068 143.584 36.7232C143.233 37.8136 143.058 39.1811 143.058 40.8258V69.9321C143.058 73.2955 142.605 76.2801 141.699 78.8858C140.775 81.5285 139.62 83.626 138.234 85.1783C136.848 86.7306 135.204 88.0242 133.3 89.0591C131.452 90.0571 129.632 90.7593 127.839 91.1659C126.102 91.554 124.328 91.748 122.517 91.748C120.687 91.748 118.904 91.554 117.167 91.1659C115.43 90.7778 113.637 90.0755 111.789 89.0591C109.941 88.0427 108.315 86.7491 106.91 85.1783C105.506 83.6075 104.36 81.51 103.473 78.8858C102.568 76.2062 102.115 73.2216 102.115 69.9321V40.8258ZM144.33 90.8887C145.05 90.2788 145.743 89.3271 146.409 88.0335C147.055 86.7768 147.536 85.6403 147.85 84.6239C147.905 84.4576 148.09 83.8385 148.404 82.7666C148.737 81.6948 149.042 80.7338 149.319 79.8837C151.444 72.8428 153.117 66.5595 154.337 61.0339C155.612 55.2496 157.007 48.1902 158.522 39.8556C158.966 37.2869 158.55 35.3742 157.275 34.1175H182.417C181.142 35.3742 180.726 37.2869 181.17 39.8556C182.685 48.1902 184.08 55.2496 185.356 61.0339C186.575 66.5595 188.248 72.8428 190.373 79.8837C190.65 80.7338 190.946 81.6948 191.26 82.7666C191.593 83.8385 191.787 84.4576 191.842 84.6239C192.156 85.6403 192.637 86.7768 193.284 88.0335C193.949 89.3271 194.642 90.2788 195.363 90.8887H171.911C173.279 89.3179 173.963 87.2573 173.963 84.707C173.963 82.5633 173.334 77.9063 172.078 70.736H163.734C164.658 72.9906 165.314 74.6169 165.702 75.6148C166.071 76.5758 166.506 78.0449 167.005 80.0223C167.448 81.7779 167.67 83.395 167.67 84.8734C167.67 86.4996 167.356 87.9041 166.728 89.0869C166.081 90.2881 165.009 90.8887 163.512 90.8887H144.33ZM162.653 68.1858H171.579C168.64 52.8842 165.822 45.2334 163.124 45.2334C160.518 45.2334 159.215 48.1717 159.215 54.0484C159.215 57.7814 160.361 62.4939 162.653 68.1858ZM199.351 90.8887C200.682 89.5581 201.347 87.322 201.347 84.1804V40.8258C201.347 37.6842 200.682 35.4481 199.351 34.1175H218.395C217.064 35.4481 216.399 37.6842 216.399 40.8258V84.1804C216.399 87.322 217.064 89.5581 218.395 90.8887H199.351Z" fill="white"/>
<circle cx="123.561" cy="13.3579" r="13.3579" fill="#F2A83A"/>
</g>
<defs>
<clipPath id="clip0_38_124">
<rect width="220" height="91" fill="white"/>
</clipPath>
</defs>
</svg>
